<svg width="46" height="45" viewBox="0 0 46 45" fill="none" xmlns="http://www.w3.org/2000/svg">
<rect x="0.5" width="45" height="45" rx="22.5" fill="black"/>
<path d="M22.5 33C21.6818 33 20.9002 32.6698 19.3369 32.0095C15.4456 30.3657 13.5 29.5438 13.5 28.1613C13.5 27.7742 13.5 21.0645 13.5 18M22.5 33V22.3548M22.5 33C22.8404 33 23.1463 32.9428 23.5 32.8285M31.5 18V22.5" stroke="white" stroke-width="1.5" stroke-linecap="round" stroke-linejoin="round"/>
<path d="M29.5 29.0005L30.4056 28.0949M33.5 29C33.5 26.7909 31.7091 25 29.5 25C27.2909 25 25.5 26.7909 25.5 29C25.5 31.2091 27.2909 33 29.5 33C31.7091 33 33.5 31.2091 33.5 29Z" stroke="white" stroke-width="1.5" stroke-linecap="round" stroke-linejoin="round"/>
<path d="M18.8259 20.6914L15.9047 19.2779C14.3016 18.5021 13.5 18.1142 13.5 17.5C13.5 16.8858 14.3016 16.4979 15.9047 15.7221L18.8259 14.3086C20.6288 13.4362 21.5303 13 22.5 13C23.4697 13 24.3712 13.4362 26.1741 14.3086L29.0953 15.7221C30.6984 16.4979 31.5 16.8858 31.5 17.5C31.5 18.1142 30.6984 18.5021 29.0953 19.2779L26.1741 20.6914C24.3712 21.5638 23.4697 22 22.5 22C21.5303 22 20.6288 21.5638 18.8259 20.6914Z" stroke="white" stroke-width="1.5" stroke-linecap="round" stroke-linejoin="round"/>
<path d="M16.5 23L18.5 24" stroke="white" stroke-width="1.5" stroke-linecap="round" stroke-linejoin="round"/>
<path d="M27.5 15L17.5 20" stroke="white" stroke-width="1.5" stroke-linecap="round" stroke-linejoin="round"/>
</svg>
