<svg width="46" height="45" viewBox="0 0 46 45" fill="none" xmlns="http://www.w3.org/2000/svg">
<rect x="0.5" width="45" height="45" rx="22.5" fill="#FEA116"/>
<path fill-rule="evenodd" clip-rule="evenodd" d="M17.375 33.25V34.1875C17.375 34.4361 17.4738 34.6746 17.6496 34.8504C17.8254 35.0262 18.0639 35.125 18.3125 35.125C18.5611 35.125 18.7996 35.0262 18.9754 34.8504C19.1512 34.6746 19.25 34.4361 19.25 34.1875V33.25C19.25 33.0014 19.1512 32.7629 18.9754 32.5871C18.7996 32.4113 18.5611 32.3125 18.3125 32.3125C18.0639 32.3125 17.8254 32.4113 17.6496 32.5871C17.4738 32.7629 17.375 33.0014 17.375 33.25ZM26.75 33.25V34.1875C26.75 34.4361 26.8488 34.6746 27.0246 34.8504C27.2004 35.0262 27.4389 35.125 27.6875 35.125C27.9361 35.125 28.1746 35.0262 28.3504 34.8504C28.5262 34.6746 28.625 34.4361 28.625 34.1875V33.25C28.625 33.0014 28.5262 32.7629 28.3504 32.5871C28.1746 32.4113 27.9361 32.3125 27.6875 32.3125C27.4389 32.3125 27.2004 32.4113 27.0246 32.5871C26.8488 32.7629 26.75 33.0014 26.75 33.25Z" fill="white"/>
<path fill-rule="evenodd" clip-rule="evenodd" d="M29.5625 10.75C29.5625 10.2527 29.365 9.77581 29.0133 9.42417C28.6617 9.07254 28.1848 8.875 27.6875 8.875H18.3125C17.8152 8.875 17.3383 9.07254 16.9867 9.42417C16.635 9.77581 16.4375 10.2527 16.4375 10.75V32.3125C16.4375 32.8098 16.635 33.2867 16.9867 33.6383C17.3383 33.99 17.8152 34.1875 18.3125 34.1875H27.6875C28.1848 34.1875 28.6617 33.99 29.0133 33.6383C29.365 33.2867 29.5625 32.8098 29.5625 32.3125V10.75ZM18.3125 10.75H27.6875V32.3125H18.3125V10.75Z" fill="white"/>
<path fill-rule="evenodd" clip-rule="evenodd" d="M21.125 14.5H24.875C25.1236 14.5 25.3621 14.4012 25.5379 14.2254C25.7137 14.0496 25.8125 13.8111 25.8125 13.5625C25.8125 13.3139 25.7137 13.0754 25.5379 12.8996C25.3621 12.7238 25.1236 12.625 24.875 12.625H21.125C20.8764 12.625 20.6379 12.7238 20.4621 12.8996C20.2863 13.0754 20.1875 13.3139 20.1875 13.5625C20.1875 13.8111 20.2863 14.0496 20.4621 14.2254C20.6379 14.4012 20.8764 14.5 21.125 14.5ZM21.125 17.3125H24.875C25.1236 17.3125 25.3621 17.2137 25.5379 17.0379C25.7137 16.8621 25.8125 16.6236 25.8125 16.375C25.8125 16.1264 25.7137 15.8879 25.5379 15.7121C25.3621 15.5363 25.1236 15.4375 24.875 15.4375H21.125C20.8764 15.4375 20.6379 15.5363 20.4621 15.7121C20.2863 15.8879 20.1875 16.1264 20.1875 16.375C20.1875 16.6236 20.2863 16.8621 20.4621 17.0379C20.6379 17.2137 20.8764 17.3125 21.125 17.3125ZM21.125 20.125H24.875C25.1236 20.125 25.3621 20.0262 25.5379 19.8504C25.7137 19.6746 25.8125 19.4361 25.8125 19.1875C25.8125 18.9389 25.7137 18.7004 25.5379 18.5246C25.3621 18.3488 25.1236 18.25 24.875 18.25H21.125C20.8764 18.25 20.6379 18.3488 20.4621 18.5246C20.2863 18.7004 20.1875 18.9389 20.1875 19.1875C20.1875 19.4361 20.2863 19.6746 20.4621 19.8504C20.6379 20.0262 20.8764 20.125 21.125 20.125Z" fill="white"/>
<path d="M23 26.6875C24.0355 26.6875 24.875 25.848 24.875 24.8125C24.875 23.777 24.0355 22.9375 23 22.9375C21.9645 22.9375 21.125 23.777 21.125 24.8125C21.125 25.848 21.9645 26.6875 23 26.6875Z" fill="white"/>
</svg>
