<svg width="46" height="45" viewBox="0 0 46 45" fill="none" xmlns="http://www.w3.org/2000/svg">
<rect x="0.5" width="45" height="45" rx="22.5" fill="black"/>
<path d="M20.3953 16.2362L20.0262 15.4057C19.7849 14.8627 19.6642 14.5912 19.4837 14.3834C19.2576 14.123 18.9628 13.9314 18.6329 13.8305C18.3698 13.75 18.0727 13.75 17.4784 13.75C16.6092 13.75 16.1745 13.75 15.8097 13.9171C15.3799 14.1139 14.9917 14.5413 14.8371 14.988C14.7058 15.3673 14.7434 15.757 14.8186 16.5364C15.6192 24.8327 20.1676 29.3811 28.4638 30.1816C29.2433 30.2569 29.633 30.2945 30.0122 30.1632C30.4589 30.0085 30.8863 29.6203 31.0832 29.1906C31.2502 28.8257 31.2502 28.3911 31.2502 27.5218C31.2502 26.9275 31.2502 26.6304 31.1697 26.3673C31.0688 26.0375 30.8772 25.7427 30.6168 25.5165C30.4091 25.336 30.1376 25.2154 29.5945 24.974L28.764 24.6049C28.176 24.3435 27.8819 24.2129 27.5832 24.1845C27.2972 24.1573 27.0089 24.1974 26.7412 24.3017C26.4615 24.4106 26.2144 24.6165 25.72 25.0285C25.2279 25.4386 24.9819 25.6437 24.6812 25.7535C24.4146 25.8508 24.0623 25.8869 23.7816 25.8455C23.4649 25.7989 23.2224 25.6693 22.7374 25.4101C21.2286 24.6038 20.3965 23.7717 19.5901 22.2628C19.331 21.7779 19.2014 21.5353 19.1547 21.2187C19.1133 20.9379 19.1494 20.5856 19.2468 20.3191C19.3566 20.0184 19.5617 19.7724 19.9717 19.2802C20.3837 18.7859 20.5897 18.5387 20.6986 18.259C20.8029 17.9914 20.843 17.703 20.8158 17.4171C20.7874 17.1183 20.6567 16.8243 20.3953 16.2362Z" stroke="white" stroke-width="1.5" stroke-linecap="round"/>
</svg>
