<svg width="61" height="60" viewBox="0 0 61 60" fill="none" xmlns="http://www.w3.org/2000/svg">
<rect x="0.600006" width="60" height="60" rx="8" fill="url(#paint0_linear_14_181)"/>
<path d="M20.3333 30C20.3333 24.9717 20.3333 22.4575 21.8954 20.8954C23.4575 19.3333 25.9717 19.3333 31 19.3333C36.0283 19.3333 38.5425 19.3333 40.1045 20.8954C41.6667 22.4575 41.6667 24.9717 41.6667 30C41.6667 35.0282 41.6667 37.5425 40.1045 39.1045C38.5425 40.6666 36.0283 40.6666 31 40.6666C25.9717 40.6666 23.4575 40.6666 21.8954 39.1045C20.3333 37.5425 20.3333 35.0282 20.3333 30Z" stroke="white" stroke-width="1.5" stroke-linejoin="round"/>
<path d="M25.3097 35.6904C26.286 36.6666 27.8573 36.6666 31 36.6666C32.0531 36.6666 32.9297 36.6666 33.6667 36.6298L37.6299 32.6666C37.6667 31.9297 37.6667 31.053 37.6667 30C37.6667 26.8573 37.6667 25.2859 36.6904 24.3096C35.714 23.3333 34.1427 23.3333 31 23.3333C27.8573 23.3333 26.286 23.3333 25.3097 24.3096C24.3333 25.2859 24.3333 26.8573 24.3333 30C24.3333 33.1426 24.3333 34.714 25.3097 35.6904Z" stroke="white" stroke-width="1.5" stroke-linejoin="round"/>
<path d="M25.6667 16.6667V19.3334M36.3333 16.6667V19.3334M31 16.6667V19.3334M25.6667 40.6667V43.3334M31 40.6667V43.3334M36.3333 40.6667V43.3334M44.3333 35.3334H41.6667M20.3333 24.6667H17.6667M20.3333 35.3334H17.6667M20.3333 30H17.6667M44.3333 24.6667H41.6667M44.3333 30H41.6667" stroke="white" stroke-width="1.5" stroke-linecap="round" stroke-linejoin="round"/>
<defs>
<linearGradient id="paint0_linear_14_181" x1="30.6" y1="0" x2="30.6" y2="87" gradientUnits="userSpaceOnUse">
<stop/>
<stop offset="1" stop-color="#666666"/>
</linearGradient>
</defs>
</svg>
