<svg width="61" height="60" viewBox="0 0 61 60" fill="none" xmlns="http://www.w3.org/2000/svg">
<rect x="0.200012" width="60" height="60" rx="8" fill="url(#paint0_linear_14_200)"/>
<path d="M23 19.3334C23 20.8061 21.8061 22 20.3334 22C18.8606 22 17.6667 20.8061 17.6667 19.3334C17.6667 17.8606 18.8606 16.6667 20.3334 16.6667C21.8061 16.6667 23 17.8606 23 19.3334Z" stroke="white" stroke-width="1.5"/>
<path d="M44.3333 19.3334C44.3333 20.8061 43.1395 22 41.6667 22C40.1939 22 39 20.8061 39 19.3334C39 17.8606 40.1939 16.6667 41.6667 16.6667C43.1395 16.6667 44.3333 17.8606 44.3333 19.3334Z" stroke="white" stroke-width="1.5"/>
<path d="M44.3333 40.6667C44.3333 42.1395 43.1395 43.3333 41.6667 43.3333C40.1939 43.3333 39 42.1395 39 40.6667C39 39.1939 40.1939 38 41.6667 38C43.1395 38 44.3333 39.1939 44.3333 40.6667Z" stroke="white" stroke-width="1.5"/>
<path d="M23 40.6667C23 42.1395 21.8061 43.3333 20.3334 43.3333C18.8606 43.3333 17.6667 42.1395 17.6667 40.6667C17.6667 39.1939 18.8606 38 20.3334 38C21.8061 38 23 39.1939 23 40.6667Z" stroke="white" stroke-width="1.5"/>
<path d="M41.6666 22V38M39 40.6666H23M39 19.3333H23M20.3333 22V38" stroke="white" stroke-width="1.5" stroke-linecap="round" stroke-linejoin="round"/>
<path d="M37 26C37 25.3787 37 25.0681 36.8985 24.8231C36.7632 24.4964 36.5036 24.2368 36.1769 24.1015C35.9319 24 35.6212 24 35 24H27C26.3787 24 26.0681 24 25.8231 24.1015C25.4964 24.2368 25.2368 24.4964 25.1015 24.8231C25 25.0681 25 25.3787 25 26C25 26.6213 25 26.9319 25.1015 27.1769C25.2368 27.5036 25.4964 27.7632 25.8231 27.8985C26.0681 28 26.3787 28 27 28H35C35.6212 28 35.9319 28 36.1769 27.8985C36.5036 27.7632 36.7632 27.5036 36.8985 27.1769C37 26.9319 37 26.6213 37 26Z" stroke="white" stroke-width="1.5" stroke-linecap="round" stroke-linejoin="round"/>
<path d="M37 34C37 33.3788 37 33.0681 36.8985 32.8231C36.7632 32.4964 36.5036 32.2368 36.1769 32.1015C35.9319 32 35.6212 32 35 32H27C26.3787 32 26.0681 32 25.8231 32.1015C25.4964 32.2368 25.2368 32.4964 25.1015 32.8231C25 33.0681 25 33.3788 25 34C25 34.6212 25 34.9319 25.1015 35.1769C25.2368 35.5036 25.4964 35.7632 25.8231 35.8985C26.0681 36 26.3787 36 27 36H35C35.6212 36 35.9319 36 36.1769 35.8985C36.5036 35.7632 36.7632 35.5036 36.8985 35.1769C37 34.9319 37 34.6212 37 34Z" stroke="white" stroke-width="1.5" stroke-linecap="round" stroke-linejoin="round"/>
<defs>
<linearGradient id="paint0_linear_14_200" x1="30.2" y1="0" x2="30.2" y2="87" gradientUnits="userSpaceOnUse">
<stop/>
<stop offset="1" stop-color="#666666"/>
</linearGradient>
</defs>
</svg>
