<svg width="60" height="60" viewBox="0 0 60 60" fill="none" xmlns="http://www.w3.org/2000/svg">
<rect width="60" height="60" rx="8" fill="url(#paint0_linear_14_152)"/>
<path d="M31.1745 23.3554L37.5384 25.051M29.8104 28.4179L32.9923 29.2656M29.9687 37.9552L31.2415 38.2944C34.8413 39.2535 36.6413 39.7331 38.0593 38.9191C39.4773 38.105 39.9597 36.3151 40.9243 32.7355L42.2884 27.6731C43.2531 24.0934 43.7353 22.3036 42.9167 20.8936C42.098 19.4835 40.298 19.004 36.698 18.0448L35.4252 17.7057C31.8253 16.7465 30.0253 16.2669 28.6073 17.081C27.1893 17.8951 26.707 19.6849 25.7424 23.2646L24.3782 28.327C23.4136 31.9066 22.9313 33.6964 23.75 35.1064C24.5687 36.5166 26.3687 36.9962 29.9687 37.9552Z" stroke="white" stroke-width="1.5" stroke-linecap="round"/>
<path d="M30 41.9283L28.7303 42.274C25.1387 43.252 23.343 43.7409 21.9283 42.9109C20.5136 42.0809 20.0324 40.256 19.07 36.6061L17.7091 31.4444C16.7467 27.7945 16.2656 25.9696 17.0824 24.5319C17.7889 23.2882 19.3333 23.3335 21.3333 23.3334" stroke="white" stroke-width="1.5" stroke-linecap="round"/>
<defs>
<linearGradient id="paint0_linear_14_152" x1="30" y1="0" x2="30" y2="87" gradientUnits="userSpaceOnUse">
<stop/>
<stop offset="1" stop-color="#666666"/>
</linearGradient>
</defs>
</svg>
