<svg width="61" height="60" viewBox="0 0 61 60" fill="none" xmlns="http://www.w3.org/2000/svg">
<rect x="0.400146" width="60" height="60" rx="8" fill="url(#paint0_linear_14_268)"/>
<path d="M19.3334 32.6667H22.5265C22.9187 32.6667 23.3055 32.7551 23.6563 32.9248L26.3789 34.2422C26.7297 34.4119 27.1165 34.5002 27.5087 34.5002H28.8988C30.2434 34.5002 31.3334 35.555 31.3334 36.856C31.3334 36.9086 31.2974 36.9548 31.2451 36.9692L27.8572 37.906C27.2495 38.074 26.5987 38.0155 26.0334 37.7419L23.1229 36.3338" stroke="white" stroke-width="1.5" stroke-linecap="round" stroke-linejoin="round"/>
<path d="M31.3334 36L37.4571 34.1185C38.5427 33.7802 39.7162 34.1813 40.3962 35.123C40.8879 35.8038 40.6876 36.7789 39.9714 37.1922L29.9506 42.974C29.3132 43.3417 28.5612 43.4314 27.8603 43.2234L19.3334 40.6932" stroke="white" stroke-width="1.5" stroke-linecap="round" stroke-linejoin="round"/>
<path d="M34 30H31.3333C28.8192 30 27.5621 30 26.7811 29.219C26 28.4379 26 27.1808 26 24.6667V22C26 19.4859 26 18.2288 26.7811 17.4477C27.5621 16.6667 28.8192 16.6667 31.3333 16.6667H34C36.5141 16.6667 37.7712 16.6667 38.5523 17.4477C39.3333 18.2288 39.3333 19.4859 39.3333 22V24.6667C39.3333 27.1808 39.3333 28.4379 38.5523 29.219C37.7712 30 36.5141 30 34 30Z" stroke="white" stroke-width="1.5" stroke-linecap="round" stroke-linejoin="round"/>
<path d="M31.3334 20.6667H34" stroke="white" stroke-width="1.5" stroke-linecap="round" stroke-linejoin="round"/>
<defs>
<linearGradient id="paint0_linear_14_268" x1="30.4001" y1="0" x2="30.4001" y2="87" gradientUnits="userSpaceOnUse">
<stop/>
<stop offset="1" stop-color="#666666"/>
</linearGradient>
</defs>
</svg>
