<svg width="30" height="30" viewBox="0 0 30 30" fill="none" xmlns="http://www.w3.org/2000/svg">
<g clip-path="url(#clip0_8_65)">
<rect width="30" height="30" rx="15" fill="#FEA116"/>
<path d="M23.2397 24.2425C23.3453 24.2382 23.4494 24.2659 23.5383 24.3232C24.2437 24.7552 24.9008 25.3273 25.4494 26.0163C25.6397 26.24 25.6062 26.5795 25.3773 26.763C25.1476 26.9465 24.8105 26.9038 24.6327 26.6666C24.1641 26.0779 23.5917 25.5797 22.9918 25.2124C22.5438 24.9479 22.7173 24.2603 23.2397 24.2425ZM6.73832 24.2425C7.26775 24.2453 7.45441 24.9426 7.00072 25.2121C6.40126 25.5794 5.83059 26.0775 5.36197 26.6663C4.92641 27.2085 4.11219 26.5607 4.54384 26.0163C5.08997 25.3273 5.7513 24.7538 6.45637 24.3218C6.54028 24.2702 6.63806 24.2403 6.73832 24.2425ZM18.7063 23.6917C18.6861 23.7959 18.6327 23.8994 18.5342 23.9957L15.4121 27.12C15.1842 27.3472 14.8144 27.3472 14.5844 27.12L11.4587 23.9957C11.4103 23.9477 11.3751 23.8937 11.3453 23.8382C13.6638 25.0158 16.4272 24.966 18.7063 23.6917ZM8.83752 14.0515H21.1561L21.538 14.5923V16.8661C21.538 19.2441 20.2711 21.4368 18.2135 22.625C16.1545 23.8119 13.6226 23.8119 11.5632 22.625C9.50561 21.4368 8.2409 19.2437 8.2409 16.8661V14.896L8.83752 14.0515ZM17.7563 6.06789L17.7584 7.69563L14.9993 8.85829L12.2455 7.69918L12.2398 6.07145L14.9993 7.30878L17.7563 6.06789ZM15.2119 1.95483C13.5437 1.90683 11.8989 2.41598 10.4546 3.42718C7.64606 5.39803 5.91379 9.03429 5.91379 12.9717C5.54188 13.3258 5.33246 13.7259 5.33246 14.1426C5.33246 14.9703 5.82135 15.7369 7.12517 16.1813L7.1177 17.718C7.34561 19.7959 8.39379 21.6924 10.0233 22.9881H8.30668C6.89192 22.9881 5.39895 23.7269 4.22526 24.8935C3.05299 26.0601 2.19397 27.6846 2.19397 29.5122C2.19397 29.8012 2.42899 30.0338 2.71593 30.0338H27.2773C27.5664 30.0338 27.8011 29.8012 27.8011 29.5122C27.8011 27.6544 26.7732 26.0288 25.4551 24.8711C24.1342 23.7155 22.5161 22.9877 21.101 22.9877H19.7552C21.3808 21.6931 22.4329 19.7987 22.6608 17.7251L22.7053 16.2396C24.1421 15.8062 24.6622 15.0062 24.6622 14.1418C24.6622 13.7251 24.4532 13.3251 24.0809 12.971C24.0809 9.03358 22.3497 5.39732 19.5401 3.42647C18.2217 2.50487 16.7326 1.99785 15.2119 1.95483Z" fill="black"/>
</g>
<defs>
<clipPath id="clip0_8_65">
<rect width="30" height="30" rx="15" fill="white"/>
</clipPath>
</defs>
</svg>
